
<svg width="40px" height="40px" viewBox="0 0 40 40" version="1.1" xmlns="http://www.w3.org/2000/svg" xmlns:xlink="http://www.w3.org/1999/xlink">
    <!-- Generator: Sketch 3.8.3 (29802) - http://www.bohemiancoding.com/sketch -->
    <desc>Created with Sketch.</desc>
    <defs></defs>
    <g id="icon/social/facebook" stroke="none" stroke-width="1" fill="none" fill-rule="evenodd">
        <path d="M20.2380513,0.274769231 C30.9932308,0.274769231 39.7252308,9.00676923 39.7252308,19.7619487 C39.7252308,30.5172308 30.9932308,39.2491282 20.2380513,39.2491282 C9.48276923,39.2491282 0.750871795,30.5172308 0.750871795,19.7619487 C0.750871795,9.00676923 9.48276923,0.274769231 20.2380513,0.274769231 L20.2380513,0.274769231 Z" id="Fill-2" fill="#3B5999"></path>
        <path d="M20.3638974,0.275179487 L20.4897436,0.276410256 L20.6152821,0.278358974 L20.7406154,0.281230769 L20.8658462,0.284717949 L20.9907692,0.289128205 L21.1155897,0.29425641 L21.2402051,0.300205128 L21.3645128,0.306871795 L21.4887179,0.314358974 L21.6127179,0.322666667 L21.7364103,0.331692308 L21.86,0.341538462 L21.9832821,0.352102564 L22.106359,0.363384615 L22.2292308,0.375487179 L22.3518974,0.388410256 L22.474359,0.401948718 L22.5965128,0.416410256 L22.7185641,0.431487179 L22.8402051,0.447384615 L22.9617436,0.464 L23.0829744,0.481435897 L23.204,0.499487179 L23.3248205,0.518358974 L23.4453333,0.537948718 L23.685641,0.579384615 L23.9250256,0.623794872 L24.1632821,0.670974359 L24.4005128,0.721128205 L24.6367179,0.774153846 L24.8717949,0.830051282 L25.1057436,0.888820513 L25.3385641,0.95025641 L25.570359,1.0145641 L25.8008205,1.08174359 L26.0302564,1.15158974 L26.258359,1.22410256 L26.4853333,1.29938462 L26.7109744,1.3774359 L26.9354872,1.45815385 L27.1586667,1.5414359 L27.3805128,1.62738462 L27.6010256,1.716 L27.8202051,1.80728205 L28.0381538,1.90102564 L28.2545641,1.99733333 L28.469641,2.09630769 L28.6833846,2.19774359 L28.8955897,2.30164103 L29.106359,2.408 L29.3156923,2.51692308 L29.5235897,2.62830769 L29.7298462,2.74205128 L29.9346667,2.85825641 L30.1379487,2.97682051 L30.3395897,3.09774359 L30.5396923,3.22102564 L30.7381538,3.34666667 L30.9350769,3.4745641 L31.1302564,3.60482051 L31.3238974,3.73733333 L31.5157949,3.87210256 L31.7059487,4.00912821 L31.894359,4.14830769 L32.0811282,4.28974359 L32.2660513,4.4334359 L32.4492308,4.57917949 L32.6306667,4.72707692 L32.8102564,4.87712821 L32.988,5.02923077 L33.1638974,5.18348718 L33.3378462,5.33979487 L33.5100513,5.49805128 L33.6802051,5.65846154 L33.8485128,5.82082051 L34.0147692,5.98523077 L34.1791795,6.15148718 L34.3415385,6.31979487 L34.5019487,6.48994872 L34.6602051,6.66215385 L34.8165128,6.83610256 L34.9707692,7.012 L35.1228718,7.18974359 L35.2729231,7.36933333 L35.4208205,7.55076923 L35.5665641,7.73394872 L35.7102564,7.91887179 L35.8516923,8.10564103 L35.9908718,8.29405128 L36.1278974,8.48420513 L36.2626667,8.67610256 L36.3951795,8.86974359 L36.5254359,9.06492308 L36.6533333,9.26184615 L36.7789744,9.46030769 L36.9022564,9.66041026 L37.0231795,9.86205128 L37.1417436,10.0653333 L37.2579487,10.2701538 L37.3716923,10.4764103 L37.4830769,10.6843077 L37.592,10.893641 L37.698359,11.1044103 L37.8022564,11.3166154 L37.9036923,11.530359 L38.0026667,11.7454359 L38.0989744,11.9618462 L38.1927179,12.1797949 L38.284,12.3989744 L38.3726154,12.6194872 L38.4585641,12.8413333 L38.5418462,13.0645128 L38.6225641,13.2890256 L38.7006154,13.5146667 L38.7758974,13.741641 L38.8484103,13.9697436 L38.9182564,14.1991795 L38.9854359,14.429641 L39.0497436,14.6614359 L39.1111795,14.8942564 L39.1699487,15.1282051 L39.2258462,15.3632821 L39.2788718,15.5994872 L39.3290256,15.8367179 L39.3762051,16.0749744 L39.4206154,16.314359 L39.4620513,16.5546667 L39.481641,16.6751795 L39.5005128,16.796 L39.5185641,16.9170256 L39.536,17.0382564 L39.5526154,17.1597949 L39.5685128,17.2814359 L39.5835897,17.4034872 L39.5980513,17.525641 L39.6115897,17.6481026 L39.6245128,17.7707692 L39.6366154,17.893641 L39.6478974,18.0167179 L39.6584615,18.14 L39.6683077,18.2635897 L39.6773333,18.3872821 L39.685641,18.5112821 L39.6931282,18.6354872 L39.6997949,18.7597949 L39.7057436,18.8844103 L39.7108718,19.0092308 L39.7152821,19.1341538 L39.7187692,19.2593846 L39.721641,19.3847179 L39.7235897,19.5102564 L39.7248205,19.6361026 L39.7252308,19.7619487 L39.7248205,19.8878974 L39.7235897,20.0137436 L39.721641,20.1392821 L39.7187692,20.2646154 L39.7152821,20.3898462 L39.7108718,20.5147692 L39.7057436,20.6395897 L39.6997949,20.7642051 L39.6931282,20.8885128 L39.685641,21.0127179 L39.6773333,21.1367179 L39.6683077,21.2604103 L39.6584615,21.384 L39.6478974,21.5072821 L39.6366154,21.630359 L39.6245128,21.7532308 L39.6115897,21.8758974 L39.5980513,21.998359 L39.5835897,22.1205128 L39.5685128,22.2425641 L39.5526154,22.3642051 L39.536,22.4857436 L39.5185641,22.6069744 L39.5005128,22.728 L39.481641,22.8488205 L39.4620513,22.9693333 L39.4206154,23.209641 L39.3762051,23.4490256 L39.3290256,23.6872821 L39.2788718,23.9245128 L39.2258462,24.1607179 L39.1699487,24.3957949 L39.1111795,24.6297436 L39.0497436,24.8625641 L38.9854359,25.0942564 L38.9182564,25.3248205 L38.8484103,25.5542564 L38.7758974,25.782359 L38.7006154,26.0093333 L38.6225641,26.2349744 L38.5418462,26.4594872 L38.4585641,26.6826667 L38.3726154,26.9045128 L38.284,27.1250256 L38.1927179,27.3442051 L38.0989744,27.5621538 L38.0026667,27.7785641 L37.9036923,27.993641 L37.8022564,28.2073846 L37.698359,28.4195897 L37.592,28.630359 L37.4830769,28.8396923 L37.3716923,29.0475897 L37.2579487,29.2538462 L37.1417436,29.4586667 L37.0231795,29.6619487 L36.9022564,29.8635897 L36.7789744,30.0636923 L36.6533333,30.2621538 L36.5254359,30.4590769 L36.3951795,30.6542564 L36.2626667,30.8478974 L36.1278974,31.0397949 L35.9908718,31.2299487 L35.8516923,31.418359 L35.7102564,31.6051282 L35.5665641,31.7900513 L35.4208205,31.9732308 L35.2729231,32.1546667 L35.1228718,32.3342564 L34.9707692,32.512 L34.8165128,32.6878974 L34.6602051,32.8618462 L34.5019487,33.0339487 L34.3415385,33.2042051 L34.1791795,33.3725128 L34.0147692,33.5387692 L33.8485128,33.7031795 L33.6802051,33.8655385 L33.5100513,34.0259487 L33.3378462,34.1842051 L33.1638974,34.3405128 L32.988,34.4947692 L32.8102564,34.6468718 L32.6306667,34.7969231 L32.4492308,34.9448205 L32.2660513,35.0905641 L32.0811282,35.2342564 L31.894359,35.3756923 L31.7059487,35.5148718 L31.5157949,35.6518974 L31.3238974,35.7866667 L31.1302564,35.9191795 L30.9350769,36.0494359 L30.7381538,36.1773333 L30.5396923,36.3029744 L30.3395897,36.4262564 L30.1379487,36.5471795 L29.9346667,36.6657436 L29.7298462,36.7819487 L29.5235897,36.8956923 L29.3156923,37.0070769 L29.106359,37.116 L28.8955897,37.222359 L28.6833846,37.3262564 L28.469641,37.4276923 L28.2545641,37.5266667 L28.0381538,37.6229744 L27.8202051,37.7167179 L27.6010256,37.808 L27.3805128,37.8966154 L27.1586667,37.9825641 L26.9354872,38.0658462 L26.7109744,38.1465641 L26.4853333,38.2246154 L26.258359,38.2998974 L26.0302564,38.3724103 L25.8008205,38.4422564 L25.570359,38.5094359 L25.3385641,38.5737436 L25.1057436,38.6351795 L24.8717949,38.6939487 L24.6367179,38.7498462 L24.4005128,38.8028718 L24.1632821,38.8529231 L23.9250256,38.9002051 L23.685641,38.9446154 L23.4453333,38.9859487 L23.3248205,39.005641 L23.204,39.0245128 L23.0829744,39.0425641 L22.9617436,39.06 L22.8402051,39.0766154 L22.7185641,39.0925128 L22.5965128,39.1075897 L22.474359,39.1220513 L22.3518974,39.1355897 L22.2292308,39.1485128 L22.106359,39.1606154 L21.9832821,39.1718974 L21.86,39.1824615 L21.7364103,39.1923077 L21.6127179,39.2013333 L21.4887179,39.209641 L21.3645128,39.2171282 L21.2402051,39.2237949 L21.1155897,39.2297436 L20.9907692,39.2348718 L20.8658462,39.2392821 L20.7406154,39.2427692 L20.6152821,39.245641 L20.4897436,39.2475897 L20.3638974,39.2488205 L20.2380513,39.2491282 L20.1121026,39.2488205 L19.9862564,39.2475897 L19.8607179,39.245641 L19.7353846,39.2427692 L19.6101538,39.2392821 L19.4852308,39.2348718 L19.3604103,39.2297436 L19.2357949,39.2237949 L19.1114872,39.2171282 L18.9872821,39.209641 L18.8632821,39.2013333 L18.7395897,39.1923077 L18.616,39.1824615 L18.4927179,39.1718974 L18.369641,39.1606154 L18.2467692,39.1485128 L18.1241026,39.1355897 L18.001641,39.1220513 L17.8794872,39.1075897 L17.7574359,39.0925128 L17.6357949,39.0766154 L17.5142564,39.06 L17.3930256,39.0425641 L17.272,39.0245128 L17.1511795,39.005641 L17.0306667,38.9859487 L16.790359,38.9446154 L16.5509744,38.9002051 L16.3127179,38.8529231 L16.0754872,38.8028718 L15.8392821,38.7498462 L15.6042051,38.6939487 L15.3702564,38.6351795 L15.1374359,38.5737436 L14.9057436,38.5094359 L14.6751795,38.4422564 L14.4457436,38.3724103 L14.217641,38.2998974 L13.9906667,38.2246154 L13.7650256,38.1465641 L13.5405128,38.0658462 L13.3173333,37.9825641 L13.0954872,37.8966154 L12.8749744,37.808 L12.6557949,37.7167179 L12.4378462,37.6229744 L12.2214359,37.5266667 L12.006359,37.4276923 L11.7926154,37.3262564 L11.5804103,37.222359 L11.369641,37.116 L11.1603077,37.0070769 L10.9524103,36.8956923 L10.7461538,36.7819487 L10.5413333,36.6657436 L10.3380513,36.5471795 L10.1364103,36.4262564 L9.93630769,36.3029744 L9.73784615,36.1773333 L9.54092308,36.0494359 L9.34574359,35.9191795 L9.15210256,35.7866667 L8.96020513,35.6518974 L8.77005128,35.5148718 L8.58164103,35.3756923 L8.39487179,35.2342564 L8.20994872,35.0905641 L8.02676923,34.9448205 L7.84533333,34.7969231 L7.66574359,34.6468718 L7.488,34.4947692 L7.31210256,34.3405128 L7.13815385,34.1842051 L6.96605128,34.0259487 L6.79579487,33.8655385 L6.62748718,33.7031795 L6.46123077,33.5387692 L6.29682051,33.3725128 L6.13446154,33.2042051 L5.97405128,33.0339487 L5.81579487,32.8618462 L5.65948718,32.6878974 L5.50523077,32.512 L5.35312821,32.3342564 L5.20307692,32.1546667 L5.05517949,31.9732308 L4.9094359,31.7900513 L4.76574359,31.6051282 L4.62430769,31.418359 L4.48512821,31.2299487 L4.34810256,31.0397949 L4.21333333,30.8478974 L4.08082051,30.6542564 L3.9505641,30.4590769 L3.82266667,30.2621538 L3.69702564,30.0636923 L3.57374359,29.8635897 L3.45282051,29.6619487 L3.33425641,29.4586667 L3.21805128,29.2538462 L3.10430769,29.0475897 L2.99292308,28.8396923 L2.884,28.630359 L2.77764103,28.4195897 L2.67374359,28.2073846 L2.57230769,27.993641 L2.47333333,27.7785641 L2.37702564,27.5621538 L2.28328205,27.3442051 L2.192,27.1250256 L2.10338462,26.9045128 L2.0174359,26.6826667 L1.93415385,26.4594872 L1.8534359,26.2349744 L1.77538462,26.0093333 L1.70010256,25.782359 L1.62758974,25.5542564 L1.55774359,25.3248205 L1.4905641,25.0942564 L1.42625641,24.8625641 L1.36482051,24.6297436 L1.30605128,24.3957949 L1.25015385,24.1607179 L1.19712821,23.9245128 L1.14707692,23.6872821 L1.09979487,23.4490256 L1.05538462,23.209641 L1.01405128,22.9693333 L0.994358974,22.8488205 L0.975487179,22.728 L0.957435897,22.6069744 L0.94,22.4857436 L0.923384615,22.3642051 L0.907487179,22.2425641 L0.892410256,22.1205128 L0.877948718,21.998359 L0.864410256,21.8758974 L0.851487179,21.7532308 L0.839384615,21.630359 L0.828102564,21.5072821 L0.817538462,21.384 L0.807692308,21.2604103 L0.798666667,21.1367179 L0.790358974,21.0127179 L0.782871795,20.8885128 L0.776205128,20.7642051 L0.77025641,20.6395897 L0.765128205,20.5147692 L0.760717949,20.3898462 L0.757230769,20.2646154 L0.754358974,20.1392821 L0.752410256,20.0137436 L0.751179487,19.8878974 L0.750871795,19.7619487 L0.751179487,19.6361026 L0.752410256,19.5102564 L0.754358974,19.3847179 L0.757230769,19.2593846 L0.760717949,19.1341538 L0.765128205,19.0092308 L0.77025641,18.8844103 L0.776205128,18.7597949 L0.782871795,18.6354872 L0.790358974,18.5112821 L0.798666667,18.3872821 L0.807692308,18.2635897 L0.817538462,18.14 L0.828102564,18.0167179 L0.839384615,17.893641 L0.851487179,17.7707692 L0.864410256,17.6481026 L0.877948718,17.525641 L0.892410256,17.4034872 L0.907487179,17.2814359 L0.923384615,17.1597949 L0.94,17.0382564 L0.957435897,16.9170256 L0.975487179,16.796 L0.994358974,16.6751795 L1.01405128,16.5546667 L1.05538462,16.314359 L1.09979487,16.0749744 L1.14707692,15.8367179 L1.19712821,15.5994872 L1.25015385,15.3632821 L1.30605128,15.1282051 L1.36482051,14.8942564 L1.42625641,14.6614359 L1.4905641,14.429641 L1.55774359,14.1991795 L1.62758974,13.9697436 L1.70010256,13.741641 L1.77538462,13.5146667 L1.8534359,13.2890256 L1.93415385,13.0645128 L2.0174359,12.8413333 L2.10338462,12.6194872 L2.192,12.3989744 L2.28328205,12.1797949 L2.37702564,11.9618462 L2.47333333,11.7454359 L2.57230769,11.530359 L2.67374359,11.3166154 L2.77764103,11.1044103 L2.884,10.893641 L2.99292308,10.6843077 L3.10430769,10.4764103 L3.21805128,10.2701538 L3.33425641,10.0653333 L3.45282051,9.86205128 L3.57374359,9.66041026 L3.69702564,9.46030769 L3.82266667,9.26184615 L3.9505641,9.06492308 L4.08082051,8.86974359 L4.21333333,8.67610256 L4.34810256,8.48420513 L4.48512821,8.29405128 L4.62430769,8.10564103 L4.76574359,7.91887179 L4.9094359,7.73394872 L5.05517949,7.55076923 L5.20307692,7.36933333 L5.35312821,7.18974359 L5.50523077,7.012 L5.65948718,6.83610256 L5.81579487,6.66215385 L5.97405128,6.48994872 L6.13446154,6.31979487 L6.29682051,6.15148718 L6.46123077,5.98523077 L6.62748718,5.82082051 L6.79579487,5.65846154 L6.96605128,5.49805128 L7.13815385,5.33979487 L7.31210256,5.18348718 L7.488,5.02923077 L7.66574359,4.87712821 L7.84533333,4.72707692 L8.02676923,4.57917949 L8.20994872,4.4334359 L8.39487179,4.28974359 L8.58164103,4.14830769 L8.77005128,4.00912821 L8.96020513,3.87210256 L9.15210256,3.73733333 L9.34574359,3.60482051 L9.54092308,3.4745641 L9.73784615,3.34666667 L9.93630769,3.22102564 L10.1364103,3.09774359 L10.3380513,2.97682051 L10.5413333,2.85825641 L10.7461538,2.74205128 L10.9524103,2.62830769 L11.1603077,2.51692308 L11.369641,2.408 L11.5804103,2.30164103 L11.7926154,2.19774359 L12.006359,2.09630769 L12.2214359,1.99733333 L12.4378462,1.90102564 L12.6557949,1.80728205 L12.8749744,1.716 L13.0954872,1.62738462 L13.3173333,1.5414359 L13.5405128,1.45815385 L13.7650256,1.3774359 L13.9906667,1.29938462 L14.217641,1.22410256 L14.4457436,1.15158974 L14.6751795,1.08174359 L14.9057436,1.0145641 L15.1374359,0.95025641 L15.3702564,0.888820513 L15.6042051,0.830051282 L15.8392821,0.774153846 L16.0754872,0.721128205 L16.3127179,0.670974359 L16.5509744,0.623794872 L16.790359,0.579384615 L17.0306667,0.537948718 L17.1511795,0.518358974 L17.272,0.499487179 L17.3930256,0.481435897 L17.5142564,0.464 L17.6357949,0.447384615 L17.7574359,0.431487179 L17.8794872,0.416410256 L18.001641,0.401948718 L18.1241026,0.388410256 L18.2467692,0.375487179 L18.369641,0.363384615 L18.4927179,0.352102564 L18.616,0.341538462 L18.7395897,0.331692308 L18.8632821,0.322666667 L18.9872821,0.314358974 L19.1114872,0.306871795 L19.2357949,0.300205128 L19.3604103,0.29425641 L19.4852308,0.289128205 L19.6101538,0.284717949 L19.7353846,0.281230769 L19.8607179,0.278358974 L19.9862564,0.276410256 L20.1121026,0.275179487 L20.2380513,0.274769231 L20.3638974,0.275179487 Z M20.124,2.32625641 L20.0140513,2.32758974 L19.9005128,2.32933333 L19.7871795,2.332 L19.6740513,2.33507692 L19.5651282,2.33887179 L19.4524103,2.34369231 L19.3401026,2.34892308 L19.2277949,2.35507692 L19.1158974,2.36174359 L19.0042051,2.36912821 L18.8967179,2.37682051 L18.7855385,2.38605128 L18.6704615,2.39558974 L18.5638974,2.40523077 L18.4573333,2.41579487 L18.3469744,2.42769231 L18.2329231,2.44030769 L18.1233846,2.45302564 L18.0178462,2.46605128 L17.9084103,2.48051282 L17.7995897,2.49538462 L17.6909744,2.51107692 L17.5824615,2.52728205 L17.474359,2.54420513 L17.3685128,2.56133333 L17.1513846,2.59876923 L16.9373333,2.63846154 L16.7245128,2.68061538 L16.5128205,2.7254359 L16.3,2.77323077 L16.0906667,2.82266667 L15.8822564,2.87517949 L15.6731282,2.93035897 L15.4671795,2.98748718 L15.2604103,3.04779487 L15.0547692,3.11025641 L14.8523077,3.17466667 L14.6493333,3.24215385 L14.4474872,3.31189744 L14.2468718,3.38420513 L14.0458462,3.45928205 L13.8478974,3.53579487 L13.6513846,3.61476923 L13.4557949,3.69610256 L13.2601026,3.78051282 L13.0657436,3.86666667 L12.876,3.95394872 L12.6841026,4.04533333 L12.4924103,4.13907692 L12.3054359,4.23333333 L12.1178462,4.33107692 L11.9321026,4.43035897 L11.7473846,4.53241026 L11.5643077,4.63610256 L11.3828718,4.74215385 L11.2013333,4.85087179 L11.0230769,4.96071795 L10.8460513,5.07282051 L10.6689231,5.18810256 L10.4938462,5.30471795 L10.3217436,5.4225641 L10.1495385,5.54369231 L9.97897436,5.66646154 L9.81035897,5.79117949 L9.64307692,5.91774359 L9.47753846,6.04635897 L9.31261538,6.1774359 L9.15035897,6.30953846 L8.99117949,6.44246154 L8.83148718,6.57948718 L8.67323077,6.71805128 L8.51805128,6.8574359 L8.36348718,6.99969231 L8.212,7.14235897 L8.06112821,7.28820513 L7.91087179,7.43651282 L7.76461538,7.58441026 L7.61917949,7.73528205 L7.47507692,7.88820513 L7.33425641,8.04102564 L7.19435897,8.19723077 L7.05466667,8.35651282 L6.91897436,8.5145641 L6.78523077,8.67497436 L6.65241026,8.83764103 L6.52235897,9.00102564 L6.39374359,9.16697436 L6.26697436,9.33415385 L6.14297436,9.50215385 L6.01938462,9.67394872 L5.89876923,9.84523077 L5.78112821,10.0173333 L5.66389744,10.1932308 L5.54892308,10.3699487 L5.43682051,10.5470769 L5.3265641,10.7260513 L5.21835897,10.9064615 L5.11210256,11.0886154 L5.00841026,11.2711795 L4.9065641,11.4561026 L4.80687179,11.6419487 L4.70984615,11.8286154 L4.61425641,12.0180513 L4.5214359,12.2074872 L4.43107692,12.3979487 L4.34235897,12.5909744 L4.256,12.7849231 L4.17230769,12.9794872 L4.09087179,13.1748718 L4.01169231,13.3725128 L3.93446154,13.5714872 L3.86010256,13.7702564 L3.78820513,13.9705641 L3.71835897,14.1728205 L3.65087179,14.376 L3.58615385,14.5791795 L3.52379487,14.7843077 L3.46379487,14.990359 L3.40635897,15.1974359 L3.35128205,15.4059487 L3.29876923,15.6149744 L3.24892308,15.8249231 L3.20153846,16.0363077 L3.15661538,16.2487179 L3.11435897,16.461641 L3.07466667,16.6755897 L3.03723077,16.8931282 L3.02010256,16.9986667 L3.00317949,17.1064615 L2.98697436,17.2145641 L2.97148718,17.3228718 L2.95661538,17.4315897 L2.94225641,17.5409231 L2.92882051,17.6491282 L2.916,17.7584615 L2.90379487,17.8682051 L2.89230769,17.9781538 L2.88133333,18.0889231 L2.87128205,18.1986667 L2.86184615,18.3082051 L2.85312821,18.4186667 L2.84502564,18.530359 L2.83753846,18.6418462 L2.83076923,18.7525128 L2.82482051,18.8632821 L2.81958974,18.9754872 L2.81487179,19.0868718 L2.81107692,19.1989744 L2.80779487,19.3123077 L2.80533333,19.4234872 L2.80358974,19.5361026 L2.80246154,19.6489231 L2.80215385,19.7621538 L2.80246154,19.8749744 L2.80358974,19.9876923 L2.80533333,20.1004103 L2.80779487,20.2115897 L2.81107692,20.3248205 L2.81487179,20.4369231 L2.81958974,20.5485128 L2.82482051,20.6610256 L2.83076923,20.7710769 L2.83753846,20.8820513 L2.84502564,20.9935385 L2.85312821,21.1052308 L2.86184615,21.2155897 L2.87128205,21.3255385 L2.88133333,21.4353846 L2.89230769,21.5457436 L2.90379487,21.6561026 L2.91589744,21.7649231 L2.92882051,21.8746667 L2.94225641,21.9829744 L2.95661538,22.0927179 L2.97148718,22.2014359 L2.98687179,22.3087179 L3.00328205,22.4180513 L3.02010256,22.525641 L3.03712821,22.6300513 L3.07476923,22.8486154 L3.11446154,23.0629744 L3.15661538,23.2755897 L3.20153846,23.488 L3.24882051,23.6989744 L3.29866667,23.9084103 L3.35128205,24.1179487 L3.40635897,24.3264615 L3.46379487,24.5334359 L3.52379487,24.7395897 L3.58615385,24.9446154 L3.65087179,25.1477949 L3.71835897,25.3509744 L3.78820513,25.5532308 L3.86010256,25.753641 L3.93476923,25.9531282 L4.01169231,26.1517949 L4.09066667,26.3482051 L4.17230769,26.5444103 L4.25641026,26.7396923 L4.34235897,26.9333333 L4.43066667,27.1250256 L4.52184615,27.3171282 L4.61425641,27.5062564 L4.7094359,27.694359 L4.80687179,27.8819487 L4.9065641,28.0676923 L5.00841026,28.2526154 L5.11261538,28.4361026 L5.21887179,28.6187692 L5.32594872,28.7973333 L5.43682051,28.9768205 L5.54964103,29.1552821 L5.66389744,29.3311795 L5.78041026,29.5059487 L5.89876923,29.6786667 L6.01938462,29.850359 L6.14225641,30.0207179 L6.26697436,30.189641 L6.39374359,30.3569231 L6.52235897,30.5227692 L6.65241026,30.6862564 L6.78523077,30.8489231 L6.91989744,31.010359 L7.05558974,31.1689231 L7.1934359,31.3260513 L7.33333333,31.4817436 L7.476,31.6367179 L7.61917949,31.7890256 L7.76358974,31.938359 L7.912,32.0884103 L8.06112821,32.2361026 L8.21087179,32.3804103 L8.36348718,32.5242051 L8.51805128,32.666359 L8.67446154,32.8068718 L8.83148718,32.9448205 L8.98994872,33.0803077 L9.15035897,33.214359 L9.31394872,33.3473846 L9.47753846,33.4779487 L9.64307692,33.6061538 L9.81169231,33.7342564 L9.97897436,33.8578462 L10.1481026,33.9795897 L10.3203077,34.1003077 L10.4952821,34.2201026 L10.6689231,34.3362051 L10.8445128,34.4500513 L11.0230769,34.5631795 L11.2028718,34.6739487 L11.3828718,34.7821538 L11.5626667,34.8868718 L11.7473846,34.9913846 L11.9321026,35.0934359 L12.1178462,35.1928205 L12.3054359,35.2905641 L12.4941538,35.385641 L12.6841026,35.4789744 L12.8742564,35.5691282 L13.0674872,35.6579487 L13.2601026,35.7437949 L13.4539487,35.8270769 L13.6513846,35.9090256 L13.8497436,35.9888205 L14.0476923,36.0657436 L14.2450256,36.1394872 L14.4474872,36.2118974 L14.6493333,36.2821538 L14.8504615,36.3486154 L15.0547692,36.4135385 L15.2604103,36.476 L15.4671795,36.5363077 L15.6731282,36.5935385 L15.8822564,36.6486154 L16.0926154,36.701641 L16.3,36.7510769 L16.5107692,36.7980513 L16.7245128,36.8431795 L16.9373333,36.8854359 L17.1513846,36.9250256 L17.3725128,36.9631795 L17.474359,36.98 L17.5824615,36.9966154 L17.6909744,37.0132308 L17.7955897,37.0278974 L17.9084103,37.0432821 L18.0178462,37.0577436 L18.1273846,37.0712821 L18.2369231,37.0844103 L18.3429744,37.0962051 L18.4533333,37.1075897 L18.5638974,37.1185641 L18.6744615,37.1287179 L18.7855385,37.138359 L18.8927179,37.1467692 L19.0042051,37.1546667 L19.1198974,37.162359 L19.2317949,37.1694359 L19.3401026,37.1753846 L19.4485128,37.1804103 L19.5611282,37.1848205 L19.6780513,37.1889231 L19.7871795,37.1923077 L19.8965128,37.1944615 L20.0140513,37.1963077 L20.128,37.197641 L20.2380513,37.1980513 L20.3481026,37.197641 L20.4619487,37.1963077 L20.5794872,37.1944615 L20.6888205,37.1923077 L20.7979487,37.1889231 L20.9148718,37.1848205 L21.0273846,37.1804103 L21.1358974,37.1753846 L21.2442051,37.1694359 L21.3561026,37.162359 L21.4717949,37.1546667 L21.5832821,37.1467692 L21.6905641,37.138359 L21.8015385,37.1287179 L21.9121026,37.1185641 L22.0226667,37.1075897 L22.1330256,37.0962051 L22.2390769,37.0844103 L22.3486154,37.0712821 L22.4581538,37.0577436 L22.5673846,37.0433846 L22.6803077,37.0278974 L22.7852308,37.0132308 L22.8935385,36.9966154 L23.001641,36.98 L23.1035897,36.9631795 L23.3246154,36.9250256 L23.5386667,36.8854359 L23.7514872,36.8431795 L23.9651282,36.7980513 L24.1758974,36.7510769 L24.3834872,36.701641 L24.5937436,36.6486154 L24.8028718,36.5935385 L25.0088205,36.5363077 L25.2155897,36.476 L25.4210256,36.413641 L25.6254359,36.3486154 L25.8267692,36.2820513 L26.0285128,36.2118974 L26.2309744,36.1394872 L26.4284103,36.0657436 L26.6262564,35.9888205 L26.8246154,35.9090256 L27.0220513,35.8270769 L27.216,35.7437949 L27.4085128,35.6579487 L27.6017436,35.5691282 L27.7916923,35.4790769 L27.9817436,35.385641 L28.1708718,35.2904615 L28.3581538,35.1928205 L28.5438974,35.0934359 L28.7286154,34.9913846 L28.9133333,34.8868718 L29.0929231,34.7822564 L29.2728205,34.6740513 L29.4531282,34.5629744 L29.6316923,34.4499487 L29.8068718,34.3364103 L29.9806154,34.2201026 L30.156,34.1001026 L30.3278974,33.9795897 L30.4970256,33.8578462 L30.6643077,33.7342564 L30.8329231,33.6061538 L30.9984615,33.4779487 L31.1621538,33.3473846 L31.325641,33.214359 L31.4860513,33.0803077 L31.6445128,32.9448205 L31.8015385,32.8068718 L31.9579487,32.666359 L32.1125128,32.5242051 L32.2652308,32.3804103 L32.4148718,32.2361026 L32.5643077,32.0881026 L32.7123077,31.9386667 L32.8567179,31.7890256 L33.0006154,31.6361026 L33.1425641,31.4820513 L33.2820513,31.3266667 L33.4203077,31.1689231 L33.5564103,31.0100513 L33.6908718,30.8489231 L33.8232821,30.6865641 L33.9535385,30.5227692 L34.0828718,30.3562051 L34.2091282,30.189641 L34.3338462,30.0207179 L34.4567179,29.850359 L34.5770256,29.6790769 L34.6957949,29.505641 L34.8122051,29.3311795 L34.9264615,29.1552821 L35.0393846,28.9768205 L35.1495385,28.7981538 L35.2570256,28.6187692 L35.3635897,28.4357949 L35.4675897,28.2526154 L35.5694359,28.0676923 L35.6691282,27.8819487 L35.7665641,27.694359 L35.8619487,27.5058462 L35.954359,27.3171282 L36.0451282,27.1255385 L36.1334359,26.9337436 L36.2196923,26.7392821 L36.3041026,26.544 L36.3854359,26.3482051 L36.4646154,26.1513846 L36.5412308,25.9535385 L36.6156923,25.7540513 L36.6877949,25.5532308 L36.7575385,25.3514872 L36.8249231,25.1483077 L36.8898462,24.9441026 L36.9522051,24.7395897 L37.012,24.5339487 L37.069641,24.3259487 L37.1248205,24.1174359 L37.1772308,23.9089231 L37.2270769,23.6989744 L37.2745641,23.4874872 L37.3193846,23.2755897 L37.3615385,23.0629744 L37.4012308,22.8486154 L37.4390769,22.6290256 L37.4561026,22.525641 L37.4724103,22.42 L37.4890256,22.3087179 L37.5047179,22.2004103 L37.5191795,22.0937436 L37.5335385,21.984 L37.5470769,21.8746667 L37.5598974,21.7649231 L37.5722051,21.6550769 L37.5837949,21.5447179 L37.5945641,21.4364103 L37.6046154,21.3255385 L37.6142564,21.2146667 L37.6228718,21.1052308 L37.6309744,20.9935385 L37.6384615,20.8820513 L37.6451282,20.7721026 L37.6510769,20.6601026 L37.6566154,20.5474872 L37.6611282,20.4369231 L37.6650256,20.3258462 L37.6681026,20.2126154 L37.6707692,20.0993846 L37.6725128,19.9876923 L37.6735385,19.8758974 L37.6737436,19.7621538 L37.6735385,19.6478974 L37.6725128,19.5361026 L37.6707692,19.4244103 L37.6681026,19.3112821 L37.6650256,19.1980513 L37.6611282,19.0868718 L37.6566154,18.9765128 L37.6510769,18.8643077 L37.6451282,18.7515897 L37.6384615,18.6418462 L37.6309744,18.530359 L37.6228718,18.4186667 L37.6142564,18.3092308 L37.6046154,18.1986667 L37.5945641,18.0878974 L37.5837949,17.9790769 L37.5722051,17.8692308 L37.5598974,17.7584615 L37.5470769,17.6491282 L37.5335385,17.5398974 L37.5192821,17.4306667 L37.5047179,17.3238974 L37.4889231,17.2145641 L37.4725128,17.1044103 L37.4561026,16.9986667 L37.4389744,16.8941538 L37.4013333,16.6755897 L37.361641,16.461641 L37.3193846,16.2487179 L37.2745641,16.0368205 L37.2269744,15.8249231 L37.1771282,15.6144615 L37.1248205,15.4064615 L37.069641,15.1978462 L37.012,14.9899487 L36.9522051,14.7843077 L36.8898462,14.5796923 L36.8249231,14.3755897 L36.7575385,14.1724103 L36.6877949,13.9705641 L36.6156923,13.7697436 L36.5415385,13.5709744 L36.4646154,13.3729231 L36.3851282,13.1748718 L36.3041026,12.9798974 L36.2201026,12.7853333 L36.1334359,12.5905641 L36.0448205,12.3975385 L35.9547692,12.2074872 L35.8619487,12.0184615 L35.7661538,11.8286154 L35.6691282,11.6419487 L35.5694359,11.4561026 L35.4675897,11.2711795 L35.3642051,11.0890256 L35.2575385,10.9064615 L35.1490256,10.7252308 L35.0393846,10.5470769 L34.9270769,10.3699487 L34.8122051,10.1932308 L34.6951795,10.0177436 L34.5770256,9.84482051 L34.4567179,9.67394872 L34.3330256,9.50215385 L34.2091282,9.33415385 L34.0828718,9.16758974 L33.9535385,9.00102564 L33.8232821,8.83733333 L33.6908718,8.67497436 L33.5572308,8.51487179 L33.4212308,8.35651282 L33.2811282,8.19661538 L33.1415385,8.04082051 L33.001641,7.88882051 L32.8567179,7.73528205 L32.7111795,7.58410256 L32.5654359,7.43682051 L32.4148718,7.28820513 L32.2641026,7.14235897 L32.1125128,6.99969231 L31.9579487,6.8574359 L31.8027692,6.71805128 L31.6445128,6.57948718 L31.4848205,6.44246154 L31.325641,6.30953846 L31.1633846,6.1774359 L30.9984615,6.04635897 L30.8329231,5.91774359 L30.665641,5.79117949 L30.4970256,5.66646154 L30.3264615,5.54369231 L30.1545641,5.42276923 L29.9820513,5.30471795 L29.8068718,5.18789744 L29.6301538,5.07302564 L29.4531282,4.96082051 L29.274359,4.85076923 L29.0929231,4.74205128 L28.9116923,4.63610256 L28.7286154,4.53241026 L28.5438974,4.43035897 L28.3581538,4.33107692 L28.1708718,4.2334359 L27.9834872,4.13907692 L27.7916923,4.04523077 L27.6,3.95394872 L27.4102564,3.86666667 L27.216,3.78051282 L27.0202051,3.69610256 L26.8246154,3.61476923 L26.6281026,3.53579487 L26.4301538,3.45928205 L26.2291282,3.38420513 L26.0285128,3.31189744 L25.8267692,3.24225641 L25.6235897,3.17466667 L25.4210256,3.11025641 L25.2155897,3.04779487 L25.0088205,2.98748718 L24.8028718,2.93035897 L24.5937436,2.87517949 L24.3855385,2.82276923 L24.1758974,2.77323077 L23.9630769,2.7254359 L23.7514872,2.68061538 L23.5386667,2.63846154 L23.3246154,2.59876923 L23.1074872,2.56133333 L23.001641,2.54420513 L22.8935385,2.52728205 L22.7852308,2.51107692 L22.6763077,2.49538462 L22.5673846,2.48051282 L22.4581538,2.46605128 L22.3526154,2.45302564 L22.2430769,2.44030769 L22.1290256,2.42769231 L22.0186667,2.41579487 L21.9121026,2.40523077 L21.8055385,2.39558974 L21.6905641,2.38605128 L21.5792821,2.37682051 L21.4717949,2.36912821 L21.3601026,2.36174359 L21.2482051,2.35507692 L21.1358974,2.34892308 L21.0234872,2.34369231 L20.9108718,2.33887179 L20.8019487,2.33507692 L20.6888205,2.332 L20.5754872,2.32933333 L20.4619487,2.32758974 L20.352,2.32625641 L20.124,2.32625641 Z" id="Fill-3" fill="#FFFFFF"></path>
        <path d="M21.5300513,30.476 L17.5728205,30.476 L17.5728205,20.4123077 L14.3363077,20.4123077 L14.3363077,16.6825641 L17.5728205,16.6825641 L17.5728205,13.4586667 C17.5728205,10.5129231 19.3681026,8.54061538 22.9208205,8.54061538 C24.4885128,8.54061538 25.5757949,8.71764103 25.5757949,8.71764103 L25.5757949,12.0806154 L23.1484103,12.0806154 C22.0737436,12.0806154 21.5300513,12.6874872 21.5300513,13.7494359 L21.5300513,16.6825641 L25.3102564,16.6825641 L24.7666667,20.4123077 L21.5300513,20.4123077 L21.5300513,30.476 Z" id="Fill-4" fill="#FFFFFF"></path>
    </g>
</svg>