
<svg width="40px" height="40px" viewBox="55 0 40 40" version="1.1" xmlns="http://www.w3.org/2000/svg" xmlns:xlink="http://www.w3.org/1999/xlink">
    <!-- Generator: Sketch 3.8.3 (29802) - http://www.bohemiancoding.com/sketch -->
    <desc>Created with Sketch.</desc>
    <defs></defs>
    <g id="icon/social/twitter" stroke="none" stroke-width="1" fill="none" fill-rule="evenodd" transform="translate(55.000000, 0.000000)">
        <path d="M20.2380513,0.274769231 C30.9932308,0.274769231 39.7252308,9.00676923 39.7252308,19.7619487 C39.7252308,30.5172308 30.9932308,39.2491282 20.2380513,39.2491282 C9.48276923,39.2491282 0.750871795,30.5172308 0.750871795,19.7619487 C0.750871795,9.00676923 9.48276923,0.274769231 20.2380513,0.274769231 L20.2380513,0.274769231 Z" id="Fill-2" fill="#5EA9DD"></path>
        <path d="M20.3638974,0.275179487 L20.4897436,0.276410256 L20.6152821,0.278358974 L20.7406154,0.281230769 L20.8658462,0.284717949 L20.9907692,0.289128205 L21.1155897,0.29425641 L21.2402051,0.300205128 L21.3645128,0.306871795 L21.4887179,0.314358974 L21.6127179,0.322666667 L21.7364103,0.331692308 L21.86,0.341538462 L21.9832821,0.352102564 L22.106359,0.363384615 L22.2292308,0.375487179 L22.3518974,0.388410256 L22.474359,0.401948718 L22.5965128,0.416410256 L22.7185641,0.431487179 L22.8402051,0.447384615 L22.9617436,0.464 L23.0829744,0.481435897 L23.204,0.499487179 L23.3248205,0.518358974 L23.4453333,0.537948718 L23.685641,0.579384615 L23.9250256,0.623794872 L24.1632821,0.670974359 L24.4005128,0.721128205 L24.6367179,0.774153846 L24.8717949,0.830051282 L25.1057436,0.888820513 L25.3385641,0.95025641 L25.570359,1.0145641 L25.8008205,1.08174359 L26.0302564,1.15158974 L26.258359,1.22410256 L26.4853333,1.29938462 L26.7109744,1.3774359 L26.9354872,1.45815385 L27.1586667,1.5414359 L27.3805128,1.62738462 L27.6010256,1.716 L27.8202051,1.80728205 L28.0381538,1.90102564 L28.2545641,1.99733333 L28.469641,2.09630769 L28.6833846,2.19774359 L28.8955897,2.30164103 L29.106359,2.408 L29.3156923,2.51692308 L29.5235897,2.62830769 L29.7298462,2.74205128 L29.9346667,2.85825641 L30.1379487,2.97682051 L30.3395897,3.09774359 L30.5396923,3.22102564 L30.7381538,3.34666667 L30.9350769,3.4745641 L31.1302564,3.60482051 L31.3238974,3.73733333 L31.5157949,3.87210256 L31.7059487,4.00912821 L31.894359,4.14830769 L32.0811282,4.28974359 L32.2660513,4.4334359 L32.4492308,4.57917949 L32.6306667,4.72707692 L32.8102564,4.87712821 L32.988,5.02923077 L33.1638974,5.18348718 L33.3378462,5.33979487 L33.5100513,5.49805128 L33.6802051,5.65846154 L33.8485128,5.82082051 L34.0147692,5.98523077 L34.1791795,6.15148718 L34.3415385,6.31979487 L34.5019487,6.48994872 L34.6602051,6.66215385 L34.8165128,6.83610256 L34.9707692,7.012 L35.1228718,7.18974359 L35.2729231,7.36933333 L35.4208205,7.55076923 L35.5665641,7.73394872 L35.7102564,7.91887179 L35.8516923,8.10564103 L35.9908718,8.29405128 L36.1278974,8.48420513 L36.2626667,8.67610256 L36.3951795,8.86974359 L36.5254359,9.06492308 L36.6533333,9.26184615 L36.7789744,9.46030769 L36.9022564,9.66041026 L37.0231795,9.86205128 L37.1417436,10.0653333 L37.2579487,10.2701538 L37.3716923,10.4764103 L37.4830769,10.6843077 L37.592,10.893641 L37.698359,11.1044103 L37.8022564,11.3166154 L37.9036923,11.530359 L38.0026667,11.7454359 L38.0989744,11.9618462 L38.1927179,12.1797949 L38.284,12.3989744 L38.3726154,12.6194872 L38.4585641,12.8413333 L38.5418462,13.0645128 L38.6225641,13.2890256 L38.7006154,13.5146667 L38.7758974,13.741641 L38.8484103,13.9697436 L38.9182564,14.1991795 L38.9854359,14.429641 L39.0497436,14.6614359 L39.1111795,14.8942564 L39.1699487,15.1282051 L39.2258462,15.3632821 L39.2788718,15.5994872 L39.3290256,15.8367179 L39.3762051,16.0749744 L39.4206154,16.314359 L39.4620513,16.5546667 L39.481641,16.6751795 L39.5005128,16.796 L39.5185641,16.9170256 L39.536,17.0382564 L39.5526154,17.1597949 L39.5685128,17.2814359 L39.5835897,17.4034872 L39.5980513,17.525641 L39.6115897,17.6481026 L39.6245128,17.7707692 L39.6366154,17.893641 L39.6478974,18.0167179 L39.6584615,18.14 L39.6683077,18.2635897 L39.6773333,18.3872821 L39.685641,18.5112821 L39.6931282,18.6354872 L39.6997949,18.7597949 L39.7057436,18.8844103 L39.7108718,19.0092308 L39.7152821,19.1341538 L39.7187692,19.2593846 L39.721641,19.3847179 L39.7235897,19.5102564 L39.7248205,19.6361026 L39.7252308,19.7619487 L39.7248205,19.8878974 L39.7235897,20.0137436 L39.721641,20.1392821 L39.7187692,20.2646154 L39.7152821,20.3898462 L39.7108718,20.5147692 L39.7057436,20.6395897 L39.6997949,20.7642051 L39.6931282,20.8885128 L39.685641,21.0127179 L39.6773333,21.1367179 L39.6683077,21.2604103 L39.6584615,21.384 L39.6478974,21.5072821 L39.6366154,21.630359 L39.6245128,21.7532308 L39.6115897,21.8758974 L39.5980513,21.998359 L39.5835897,22.1205128 L39.5685128,22.2425641 L39.5526154,22.3642051 L39.536,22.4857436 L39.5185641,22.6069744 L39.5005128,22.728 L39.481641,22.8488205 L39.4620513,22.9693333 L39.4206154,23.209641 L39.3762051,23.4490256 L39.3290256,23.6872821 L39.2788718,23.9245128 L39.2258462,24.1607179 L39.1699487,24.3957949 L39.1111795,24.6297436 L39.0497436,24.8625641 L38.9854359,25.0942564 L38.9182564,25.3248205 L38.8484103,25.5542564 L38.7758974,25.782359 L38.7006154,26.0093333 L38.6225641,26.2349744 L38.5418462,26.4594872 L38.4585641,26.6826667 L38.3726154,26.9045128 L38.284,27.1250256 L38.1927179,27.3442051 L38.0989744,27.5621538 L38.0026667,27.7785641 L37.9036923,27.993641 L37.8022564,28.2073846 L37.698359,28.4195897 L37.592,28.630359 L37.4830769,28.8396923 L37.3716923,29.0475897 L37.2579487,29.2538462 L37.1417436,29.4586667 L37.0231795,29.6619487 L36.9022564,29.8635897 L36.7789744,30.0636923 L36.6533333,30.2621538 L36.5254359,30.4590769 L36.3951795,30.6542564 L36.2626667,30.8478974 L36.1278974,31.0397949 L35.9908718,31.2299487 L35.8516923,31.418359 L35.7102564,31.6051282 L35.5665641,31.7900513 L35.4208205,31.9732308 L35.2729231,32.1546667 L35.1228718,32.3342564 L34.9707692,32.512 L34.8165128,32.6878974 L34.6602051,32.8618462 L34.5019487,33.0339487 L34.3415385,33.2042051 L34.1791795,33.3725128 L34.0147692,33.5387692 L33.8485128,33.7031795 L33.6802051,33.8655385 L33.5100513,34.0259487 L33.3378462,34.1842051 L33.1638974,34.3405128 L32.988,34.4947692 L32.8102564,34.6468718 L32.6306667,34.7969231 L32.4492308,34.9448205 L32.2660513,35.0905641 L32.0811282,35.2342564 L31.894359,35.3756923 L31.7059487,35.5148718 L31.5157949,35.6518974 L31.3238974,35.7866667 L31.1302564,35.9191795 L30.9350769,36.0494359 L30.7381538,36.1773333 L30.5396923,36.3029744 L30.3395897,36.4262564 L30.1379487,36.5471795 L29.9346667,36.6657436 L29.7298462,36.7819487 L29.5235897,36.8956923 L29.3156923,37.0070769 L29.106359,37.116 L28.8955897,37.222359 L28.6833846,37.3262564 L28.469641,37.4276923 L28.2545641,37.5266667 L28.0381538,37.6229744 L27.8202051,37.7167179 L27.6010256,37.808 L27.3805128,37.8966154 L27.1586667,37.9825641 L26.9354872,38.0658462 L26.7109744,38.1465641 L26.4853333,38.2246154 L26.258359,38.2998974 L26.0302564,38.3724103 L25.8008205,38.4422564 L25.570359,38.5094359 L25.3385641,38.5737436 L25.1057436,38.6351795 L24.8717949,38.6939487 L24.6367179,38.7498462 L24.4005128,38.8028718 L24.1632821,38.8529231 L23.9250256,38.9002051 L23.685641,38.9446154 L23.4453333,38.9859487 L23.3248205,39.005641 L23.204,39.0245128 L23.0829744,39.0425641 L22.9617436,39.06 L22.8402051,39.0766154 L22.7185641,39.0925128 L22.5965128,39.1075897 L22.474359,39.1220513 L22.3518974,39.1355897 L22.2292308,39.1485128 L22.106359,39.1606154 L21.9832821,39.1718974 L21.86,39.1824615 L21.7364103,39.1923077 L21.6127179,39.2013333 L21.4887179,39.209641 L21.3645128,39.2171282 L21.2402051,39.2237949 L21.1155897,39.2297436 L20.9907692,39.2348718 L20.8658462,39.2392821 L20.7406154,39.2427692 L20.6152821,39.245641 L20.4897436,39.2475897 L20.3638974,39.2488205 L20.2380513,39.2491282 L20.1121026,39.2488205 L19.9862564,39.2475897 L19.8607179,39.245641 L19.7353846,39.2427692 L19.6101538,39.2392821 L19.4852308,39.2348718 L19.3604103,39.2297436 L19.2357949,39.2237949 L19.1114872,39.2171282 L18.9872821,39.209641 L18.8632821,39.2013333 L18.7395897,39.1923077 L18.616,39.1824615 L18.4927179,39.1718974 L18.369641,39.1606154 L18.2467692,39.1485128 L18.1241026,39.1355897 L18.001641,39.1220513 L17.8794872,39.1075897 L17.7574359,39.0925128 L17.6357949,39.0766154 L17.5142564,39.06 L17.3930256,39.0425641 L17.272,39.0245128 L17.1511795,39.005641 L17.0306667,38.9859487 L16.790359,38.9446154 L16.5509744,38.9002051 L16.3127179,38.8529231 L16.0754872,38.8028718 L15.8392821,38.7498462 L15.6042051,38.6939487 L15.3702564,38.6351795 L15.1374359,38.5737436 L14.9057436,38.5094359 L14.6751795,38.4422564 L14.4457436,38.3724103 L14.217641,38.2998974 L13.9906667,38.2246154 L13.7650256,38.1465641 L13.5405128,38.0658462 L13.3173333,37.9825641 L13.0954872,37.8966154 L12.8749744,37.808 L12.6557949,37.7167179 L12.4378462,37.6229744 L12.2214359,37.5266667 L12.006359,37.4276923 L11.7926154,37.3262564 L11.5804103,37.222359 L11.369641,37.116 L11.1603077,37.0070769 L10.9524103,36.8956923 L10.7461538,36.7819487 L10.5413333,36.6657436 L10.3380513,36.5471795 L10.1364103,36.4262564 L9.93630769,36.3029744 L9.73784615,36.1773333 L9.54092308,36.0494359 L9.34574359,35.9191795 L9.15210256,35.7866667 L8.96020513,35.6518974 L8.77005128,35.5148718 L8.58164103,35.3756923 L8.39487179,35.2342564 L8.20994872,35.0905641 L8.02676923,34.9448205 L7.84533333,34.7969231 L7.66574359,34.6468718 L7.488,34.4947692 L7.31210256,34.3405128 L7.13815385,34.1842051 L6.96605128,34.0259487 L6.79579487,33.8655385 L6.62748718,33.7031795 L6.46123077,33.5387692 L6.29682051,33.3725128 L6.13446154,33.2042051 L5.97405128,33.0339487 L5.81579487,32.8618462 L5.65948718,32.6878974 L5.50523077,32.512 L5.35312821,32.3342564 L5.20307692,32.1546667 L5.05517949,31.9732308 L4.9094359,31.7900513 L4.76574359,31.6051282 L4.62430769,31.418359 L4.48512821,31.2299487 L4.34810256,31.0397949 L4.21333333,30.8478974 L4.08082051,30.6542564 L3.9505641,30.4590769 L3.82266667,30.2621538 L3.69702564,30.0636923 L3.57374359,29.8635897 L3.45282051,29.6619487 L3.33425641,29.4586667 L3.21805128,29.2538462 L3.10430769,29.0475897 L2.99292308,28.8396923 L2.884,28.630359 L2.77764103,28.4195897 L2.67374359,28.2073846 L2.57230769,27.993641 L2.47333333,27.7785641 L2.37702564,27.5621538 L2.28328205,27.3442051 L2.192,27.1250256 L2.10338462,26.9045128 L2.0174359,26.6826667 L1.93415385,26.4594872 L1.8534359,26.2349744 L1.77538462,26.0093333 L1.70010256,25.782359 L1.62758974,25.5542564 L1.55774359,25.3248205 L1.4905641,25.0942564 L1.42625641,24.8625641 L1.36482051,24.6297436 L1.30605128,24.3957949 L1.25015385,24.1607179 L1.19712821,23.9245128 L1.14707692,23.6872821 L1.09979487,23.4490256 L1.05538462,23.209641 L1.01405128,22.9693333 L0.994358974,22.8488205 L0.975487179,22.728 L0.957435897,22.6069744 L0.94,22.4857436 L0.923384615,22.3642051 L0.907487179,22.2425641 L0.892410256,22.1205128 L0.877948718,21.998359 L0.864410256,21.8758974 L0.851487179,21.7532308 L0.839384615,21.630359 L0.828102564,21.5072821 L0.817538462,21.384 L0.807692308,21.2604103 L0.798666667,21.1367179 L0.790358974,21.0127179 L0.782871795,20.8885128 L0.776205128,20.7642051 L0.77025641,20.6395897 L0.765128205,20.5147692 L0.760717949,20.3898462 L0.757230769,20.2646154 L0.754358974,20.1392821 L0.752410256,20.0137436 L0.751179487,19.8878974 L0.750871795,19.7619487 L0.751179487,19.6361026 L0.752410256,19.5102564 L0.754358974,19.3847179 L0.757230769,19.2593846 L0.760717949,19.1341538 L0.765128205,19.0092308 L0.77025641,18.8844103 L0.776205128,18.7597949 L0.782871795,18.6354872 L0.790358974,18.5112821 L0.798666667,18.3872821 L0.807692308,18.2635897 L0.817538462,18.14 L0.828102564,18.0167179 L0.839384615,17.893641 L0.851487179,17.7707692 L0.864410256,17.6481026 L0.877948718,17.525641 L0.892410256,17.4034872 L0.907487179,17.2814359 L0.923384615,17.1597949 L0.94,17.0382564 L0.957435897,16.9170256 L0.975487179,16.796 L0.994358974,16.6751795 L1.01405128,16.5546667 L1.05538462,16.314359 L1.09979487,16.0749744 L1.14707692,15.8367179 L1.19712821,15.5994872 L1.25015385,15.3632821 L1.30605128,15.1282051 L1.36482051,14.8942564 L1.42625641,14.6614359 L1.4905641,14.429641 L1.55774359,14.1991795 L1.62758974,13.9697436 L1.70010256,13.741641 L1.77538462,13.5146667 L1.8534359,13.2890256 L1.93415385,13.0645128 L2.0174359,12.8413333 L2.10338462,12.6194872 L2.192,12.3989744 L2.28328205,12.1797949 L2.37702564,11.9618462 L2.47333333,11.7454359 L2.57230769,11.530359 L2.67374359,11.3166154 L2.77764103,11.1044103 L2.884,10.893641 L2.99292308,10.6843077 L3.10430769,10.4764103 L3.21805128,10.2701538 L3.33425641,10.0653333 L3.45282051,9.86205128 L3.57374359,9.66041026 L3.69702564,9.46030769 L3.82266667,9.26184615 L3.9505641,9.06492308 L4.08082051,8.86974359 L4.21333333,8.67610256 L4.34810256,8.48420513 L4.48512821,8.29405128 L4.62430769,8.10564103 L4.76574359,7.91887179 L4.9094359,7.73394872 L5.05517949,7.55076923 L5.20307692,7.36933333 L5.35312821,7.18974359 L5.50523077,7.012 L5.65948718,6.83610256 L5.81579487,6.66215385 L5.97405128,6.48994872 L6.13446154,6.31979487 L6.29682051,6.15148718 L6.46123077,5.98523077 L6.62748718,5.82082051 L6.79579487,5.65846154 L6.96605128,5.49805128 L7.13815385,5.33979487 L7.31210256,5.18348718 L7.488,5.02923077 L7.66574359,4.87712821 L7.84533333,4.72707692 L8.02676923,4.57917949 L8.20994872,4.4334359 L8.39487179,4.28974359 L8.58164103,4.14830769 L8.77005128,4.00912821 L8.96020513,3.87210256 L9.15210256,3.73733333 L9.34574359,3.60482051 L9.54092308,3.4745641 L9.73784615,3.34666667 L9.93630769,3.22102564 L10.1364103,3.09774359 L10.3380513,2.97682051 L10.5413333,2.85825641 L10.7461538,2.74205128 L10.9524103,2.62830769 L11.1603077,2.51692308 L11.369641,2.408 L11.5804103,2.30164103 L11.7926154,2.19774359 L12.006359,2.09630769 L12.2214359,1.99733333 L12.4378462,1.90102564 L12.6557949,1.80728205 L12.8749744,1.716 L13.0954872,1.62738462 L13.3173333,1.5414359 L13.5405128,1.45815385 L13.7650256,1.3774359 L13.9906667,1.29938462 L14.217641,1.22410256 L14.4457436,1.15158974 L14.6751795,1.08174359 L14.9057436,1.0145641 L15.1374359,0.95025641 L15.3702564,0.888820513 L15.6042051,0.830051282 L15.8392821,0.774153846 L16.0754872,0.721128205 L16.3127179,0.670974359 L16.5509744,0.623794872 L16.790359,0.579384615 L17.0306667,0.537948718 L17.1511795,0.518358974 L17.272,0.499487179 L17.3930256,0.481435897 L17.5142564,0.464 L17.6357949,0.447384615 L17.7574359,0.431487179 L17.8794872,0.416410256 L18.001641,0.401948718 L18.1241026,0.388410256 L18.2467692,0.375487179 L18.369641,0.363384615 L18.4927179,0.352102564 L18.616,0.341538462 L18.7395897,0.331692308 L18.8632821,0.322666667 L18.9872821,0.314358974 L19.1114872,0.306871795 L19.2357949,0.300205128 L19.3604103,0.29425641 L19.4852308,0.289128205 L19.6101538,0.284717949 L19.7353846,0.281230769 L19.8607179,0.278358974 L19.9862564,0.276410256 L20.1121026,0.275179487 L20.2380513,0.274769231 L20.3638974,0.275179487 Z M20.124,2.32646154 L20.0102564,2.32738462 L19.9005128,2.32912821 L19.7910769,2.33169231 L19.6739487,2.33528205 L19.5611282,2.33876923 L19.4525128,2.34348718 L19.3401026,2.34871795 L19.2277949,2.35487179 L19.1157949,2.36153846 L19.0081026,2.36871795 L18.8966154,2.37702564 L18.7855385,2.38584615 L18.6745641,2.39548718 L18.5637949,2.40553846 L18.4532308,2.41651282 L18.3430769,2.42789744 L18.2368205,2.43969231 L18.1272821,2.45282051 L18.0139487,2.46687179 L17.9045128,2.48082051 L17.7994872,2.49517949 L17.6907692,2.51087179 L17.5825641,2.52697436 L17.4745641,2.544 L17.3684103,2.56112821 L17.1512821,2.5985641 L16.9375385,2.63815385 L16.7246154,2.68041026 L16.5127179,2.72523077 L16.3020513,2.77261538 L16.0905641,2.82297436 L15.8822564,2.87497436 L15.6751795,2.93005128 L15.4650256,2.98830769 L15.2604103,3.04758974 L15.0567179,3.10984615 L14.8506667,3.17548718 L14.6471795,3.24276923 L14.4473846,3.31169231 L14.2470769,3.38389744 L14.0458462,3.45907692 L13.8478974,3.53548718 L13.6532308,3.61384615 L13.4555897,3.69641026 L13.26,3.78030769 L13.0676923,3.86605128 L12.8740513,3.95507692 L12.682359,4.04594872 L12.494359,4.13784615 L12.3052308,4.23364103 L12.117641,4.33097436 L11.932,4.43066667 L11.7472821,4.53220513 L11.5644103,4.63620513 L11.3815385,4.74276923 L11.2031795,4.84964103 L11.0231795,4.96092308 L10.8446154,5.07364103 L10.6690256,5.18789744 L10.4933333,5.30482051 L10.321641,5.42235897 L10.1498462,5.54338462 L9.97876923,5.66646154 L9.81025641,5.79087179 L9.64307692,5.91753846 L9.47712821,6.04635897 L9.31405128,6.176 L9.15169231,6.30871795 L8.98984615,6.44379487 L8.83179487,6.57907692 L8.67425641,6.7174359 L8.51805128,6.85774359 L8.36379487,6.99969231 L8.2105641,7.14389744 L8.05969231,7.28933333 L7.91210256,7.43497436 L7.76492308,7.58441026 L7.61928205,7.73507692 L7.476,7.88738462 L7.33312821,8.04266667 L7.19333333,8.19805128 L7.05558974,8.35517949 L6.92010256,8.51353846 L6.78533333,8.67517949 L6.65210256,8.83825641 L6.52235897,9.00133333 L6.39364103,9.16728205 L6.26697436,9.33446154 L6.14215385,9.50338462 L6.01938462,9.67374359 L5.89846154,9.84584615 L5.78061538,10.0177436 L5.664,10.1930256 L5.54892308,10.3697436 L5.43733333,10.5461538 L5.32666667,10.7258462 L5.21794872,10.9070769 L5.11230769,11.0878974 L5.00830769,11.2714872 L4.90646154,11.4558974 L4.80728205,11.6413333 L4.70933333,11.8297436 L4.61435897,12.0174359 L4.5214359,12.2077949 L4.43035897,12.3989744 L4.34246154,12.590359 L4.25661538,12.7834872 L4.17210256,12.9801026 L4.0905641,13.1754872 L4.01210256,13.3710769 L3.93497436,13.5705641 L3.85989744,13.7715897 L3.78779487,13.9712821 L3.71835897,14.1726154 L3.65107692,14.3753846 L3.58625641,14.5793846 L3.52369231,14.7846154 L3.46379487,14.9906667 L3.40615385,15.1982564 L3.35117949,15.4057436 L3.29887179,15.6146667 L3.24882051,15.8251282 L3.20133333,16.0366154 L3.15651282,16.2485128 L3.11425641,16.4614359 L3.07466667,16.6749744 L3.03723077,16.8927179 L3.02010256,16.9984615 L3.00307692,17.1066667 L2.98728205,17.2129231 L2.97148718,17.3230769 L2.95641026,17.4324103 L2.94246154,17.5402051 L2.92892308,17.6494359 L2.916,17.7591795 L2.90369231,17.8690256 L2.89230769,17.9773333 L2.88164103,18.0876923 L2.87128205,18.1985641 L2.86184615,18.3098462 L2.85292308,18.4207179 L2.84492308,18.5298462 L2.83764103,18.6397949 L2.83097436,18.752 L2.82482051,18.8641026 L2.81969231,18.9745641 L2.81507692,19.0872821 L2.81107692,19.1998974 L2.80779487,19.3109744 L2.8054359,19.4247179 L2.80338462,19.5379487 L2.80235897,19.6481026 L2.80215385,19.7619487 L2.80235897,19.8762051 L2.80338462,19.9859487 L2.8054359,20.0991795 L2.80779487,20.2129231 L2.81107692,20.324 L2.81507692,20.4366154 L2.81969231,20.5493333 L2.82482051,20.6597949 L2.83097436,20.7718974 L2.83764103,20.8841026 L2.84492308,20.9940513 L2.85292308,21.1031795 L2.86184615,21.2144615 L2.87128205,21.3257436 L2.88153846,21.4357949 L2.89230769,21.5465641 L2.90369231,21.6548718 L2.916,21.7647179 L2.92892308,21.8749744 L2.94246154,21.9847179 L2.95641026,22.0914872 L2.97148718,22.2002051 L2.98728205,22.3109744 L3.00307692,22.4172308 L3.02020513,22.5260513 L3.03723077,22.632 L3.07466667,22.8485128 L3.11425641,23.0624615 L3.15651282,23.2753846 L3.20133333,23.4872821 L3.24892308,23.6991795 L3.29887179,23.909641 L3.35107692,24.1177436 L3.40615385,24.325641 L3.46389744,24.5337436 L3.52369231,24.7397949 L3.58605128,24.944 L3.65128205,25.1491282 L3.71835897,25.3517949 L3.78779487,25.5526154 L3.86010256,25.7534359 L3.93466667,25.9531282 L4.01189744,26.1521026 L4.09087179,26.3492308 L4.17210256,26.5442051 L4.25620513,26.7395897 L4.34246154,26.9335385 L4.43035897,27.1249231 L4.5214359,27.3161026 L4.61476923,27.5072821 L4.70933333,27.6945641 L4.80676923,27.8817436 L4.90646154,28.068 L5.00830769,28.2524103 L5.11230769,28.436 L5.21794872,28.6168205 L5.32666667,28.7980513 L5.43733333,28.9777436 L5.54892308,29.1541538 L5.664,29.3309744 L5.78061538,29.5061538 L5.89846154,29.6780513 L6.02010256,29.8511795 L6.14215385,30.0209231 L6.26697436,30.1894359 L6.39364103,30.3571282 L6.52164103,30.5215385 L6.65292308,30.6867692 L6.78533333,30.8491282 L6.91917949,31.0093333 L7.05558974,31.1687179 L7.19333333,31.3258462 L7.33405128,31.4822564 L7.476,31.6369231 L7.61825641,31.7877949 L7.76492308,31.9394872 L7.91210256,32.0889231 L8.05969231,32.2345641 L8.21169231,32.3810256 L8.36492308,32.5257436 L8.51682051,32.6655385 L8.67302564,32.8054359 L8.83179487,32.9448205 L8.98984615,33.0801026 L9.15169231,33.2151795 L9.31405128,33.3478974 L9.47712821,33.4775385 L9.64307692,33.606359 L9.81025641,33.7330256 L9.97876923,33.8575385 L10.1498462,33.9806154 L10.321641,34.1015385 L10.4933333,34.2190769 L10.6690256,34.336 L10.8461538,34.4512821 L11.0231795,34.5633846 L11.201641,34.6733333 L11.3815385,34.7811282 L11.5644103,34.8876923 L11.7472821,34.9916923 L11.932,35.0932308 L12.117641,35.1929231 L12.3052308,35.2902564 L12.494359,35.3860513 L12.682359,35.4779487 L12.8740513,35.5688205 L13.0676923,35.6578462 L13.2617436,35.7443077 L13.4555897,35.828 L13.6513846,35.9093333 L13.8478974,35.9884103 L14.0458462,36.0648205 L14.2470769,36.14 L14.4473846,36.2122051 L14.6491282,36.2818462 L14.8526154,36.3495385 L15.0548718,36.4138462 L15.2604103,36.4763077 L15.4669744,36.5366154 L15.6733333,36.5937436 L15.8803077,36.6484103 L16.0905641,36.7009231 L16.3020513,36.7512821 L16.5127179,36.7986667 L16.7246154,36.8434872 L16.9375385,36.8857436 L17.1512821,36.9253333 L17.3684103,36.9627692 L17.4745641,36.9798974 L17.5825641,36.9969231 L17.6907692,37.0130256 L17.7994872,37.0287179 L17.9045128,37.0430769 L18.0180513,37.0575385 L18.1272821,37.0715897 L18.2328205,37.0837949 L18.3430769,37.096 L18.4532308,37.1073846 L18.5677949,37.1187692 L18.6745641,37.1289231 L18.7814359,37.1377436 L18.8966154,37.1468718 L19.0081026,37.1551795 L19.1157949,37.162359 L19.2277949,37.1690256 L19.3401026,37.1751795 L19.4525128,37.1804103 L19.5651282,37.1852308 L19.6739487,37.1891282 L19.7870769,37.1922051 L19.9005128,37.1947692 L20.0102564,37.1965128 L20.124,37.1974359 L20.2380513,37.1978462 L20.3521026,37.1974359 L20.4658462,37.1965128 L20.5754872,37.1947692 L20.6887179,37.1922051 L20.8018462,37.1891282 L20.9108718,37.1852308 L21.0235897,37.1804103 L21.1358974,37.1751795 L21.2482051,37.1690256 L21.3598974,37.1624615 L21.4677949,37.1551795 L21.5791795,37.1468718 L21.6945641,37.1377436 L21.801641,37.1289231 L21.9083077,37.1187692 L22.0228718,37.1073846 L22.1329231,37.096 L22.2429744,37.0837949 L22.3485128,37.0715897 L22.458359,37.0575385 L22.5715897,37.0430769 L22.6763077,37.0288205 L22.7848205,37.0130256 L22.893641,36.9968205 L23.0018462,36.9797949 L23.1074872,36.9627692 L23.3246154,36.9253333 L23.5386667,36.885641 L23.7514872,36.8434872 L23.9633846,36.7986667 L24.1740513,36.7512821 L24.3853333,36.7010256 L24.5954872,36.6484103 L24.8027692,36.5937436 L25.0088205,36.5366154 L25.2156923,36.4763077 L25.4210256,36.4138462 L25.6237949,36.3494359 L25.8266667,36.2819487 L26.0284103,36.2122051 L26.2293333,36.1398974 L26.4302564,36.0648205 L26.6282051,35.9884103 L26.8247179,35.9093333 L27.0201026,35.8281026 L27.2141538,35.7443077 L27.4087179,35.657641 L27.601641,35.5689231 L27.7935385,35.4779487 L27.9821538,35.3858462 L28.1704615,35.2904615 L28.3578462,35.1931282 L28.5443077,35.0930256 L28.7287179,34.9916923 L28.9113846,34.8876923 L29.0949744,34.7809231 L29.2744615,34.6733333 L29.4529231,34.5633846 L29.6299487,34.4512821 L29.8069744,34.336 L29.9822564,34.2193846 L30.1541538,34.1015385 L30.3267692,33.9802051 L30.4968205,33.8578462 L30.6655385,33.7330256 L30.8330256,33.606359 L30.9981538,33.4779487 L31.1622564,33.3474872 L31.3244103,33.2151795 L31.4859487,33.0801026 L31.6448205,32.9444103 L31.8025641,32.8058462 L31.9589744,32.6655385 L32.1116923,32.5252308 L32.2637949,32.3815385 L32.4155897,32.2350769 L32.5642051,32.0884103 L32.7116923,31.9389744 L32.8578462,31.7877949 L33,31.6369231 L33.1420513,31.4822564 L33.2826667,31.3258462 L33.4198974,31.1693333 L33.5566154,31.0093333 L33.6907692,30.8491282 L33.8228718,30.6867692 L33.9544615,30.5215385 L34.0822564,30.3571282 L34.2095385,30.1888205 L34.3339487,30.0209231 L34.4553846,29.8518974 L34.5769231,29.6788718 L34.6956923,29.5054359 L34.8121026,29.3309744 L34.9269744,29.1541538 L35.0392821,28.9770256 L35.1494359,28.7980513 L35.2577436,28.617641 L35.3630769,28.4368205 L35.4674872,28.2524103 L35.5693333,28.068 L35.6690256,27.8817436 L35.7665641,27.6945641 L35.8614359,27.5064615 L35.9546667,27.3161026 L36.0450256,27.1257436 L36.1337436,26.9327179 L36.2202051,26.7387692 L36.3035897,26.5451282 L36.3850256,26.3492308 L36.4646154,26.1511795 L36.5414359,25.9531282 L36.6155897,25.754359 L36.688,25.5526154 L36.7579487,25.3507692 L36.8248205,25.1491282 L36.8897436,24.9449231 L36.9521026,24.7397949 L37.0124103,24.5328205 L37.0697436,24.3266667 L37.1245128,24.1186667 L37.1772308,23.9087179 L37.2270769,23.6991795 L37.2742564,23.4883077 L37.3193846,23.2753846 L37.3615385,23.0624615 L37.4012308,22.8485128 L37.4388718,22.6299487 L37.4558974,22.5260513 L37.4727179,22.4172308 L37.4891282,22.3089231 L37.5043077,22.2022564 L37.5194872,22.0914872 L37.5338462,21.9827692 L37.5471795,21.8749744 L37.5601026,21.7647179 L37.5721026,21.6568205 L37.5834872,21.5465641 L37.5946667,21.4338462 L37.6047179,21.3257436 L37.6140513,21.2164103 L37.6227692,21.1052308 L37.6308718,20.9940513 L37.638359,20.8820513 L37.6452308,20.7698462 L37.6512821,20.6597949 L37.6564103,20.5493333 L37.6610256,20.4366154 L37.6650256,20.324 L37.6682051,20.2129231 L37.6706667,20.1012308 L37.6724103,19.9878974 L37.6735385,19.8742564 L37.6739487,19.7619487 L37.6735385,19.6501538 L37.6724103,19.5358974 L37.6706667,19.4226667 L37.6682051,19.3109744 L37.6650256,19.1998974 L37.6610256,19.0872821 L37.6564103,18.9745641 L37.6512821,18.8641026 L37.6452308,18.7540513 L37.638359,18.6418462 L37.6308718,18.5298462 L37.6227692,18.4187692 L37.6140513,18.3077949 L37.6047179,18.1985641 L37.5946667,18.0897436 L37.5834872,17.9773333 L37.5721026,17.8670769 L37.5601026,17.7591795 L37.5471795,17.6494359 L37.5338462,17.5421538 L37.5193846,17.4324103 L37.5043077,17.3211282 L37.4891282,17.2149744 L37.4727179,17.1066667 L37.456,16.9984615 L37.4389744,16.8947692 L37.4011282,16.6749744 L37.3615385,16.4614359 L37.3193846,16.2485128 L37.2742564,16.0356923 L37.2271795,15.8251282 L37.1772308,15.6156923 L37.1244103,15.4047179 L37.0697436,15.1972308 L37.0126154,14.9916923 L36.9521026,14.7846154 L36.8895385,14.5784615 L36.8250256,14.3753846 L36.7579487,14.1735385 L36.688,13.9712821 L36.6158974,13.7706667 L36.5411282,13.5705641 L36.4643077,13.372 L36.3853333,13.1754872 L36.3035897,12.9792821 L36.2198974,12.7844103 L36.1337436,12.5912821 L36.0450256,12.3981538 L35.9546667,12.2077949 L35.8618462,12.0182564 L35.7665641,11.8297436 L35.6685128,11.6413333 L35.5693333,11.4558974 L35.4674872,11.2714872 L35.3630769,11.0870769 L35.2577436,10.9062564 L35.1494359,10.7258462 L35.0392821,10.5468718 L34.9269744,10.3697436 L34.8121026,10.1930256 L34.6956923,10.0184615 L34.5769231,9.84512821 L34.4561026,9.67302564 L34.3339487,9.50338462 L34.2095385,9.33517949 L34.0822564,9.16728205 L33.953641,9.00133333 L33.8236923,8.83825641 L33.6907692,8.67517949 L33.5557949,8.51353846 L33.4198974,8.3545641 L33.2826667,8.19805128 L33.1429744,8.04266667 L33,7.88738462 L32.8568205,7.73507692 L32.7116923,7.58492308 L32.5642051,7.43548718 L32.4155897,7.28882051 L32.2649231,7.14338462 L32.1128205,7.00020513 L31.9578462,6.85774359 L31.8013333,6.71702564 L31.6448205,6.57948718 L31.4859487,6.44379487 L31.3244103,6.30871795 L31.1622564,6.17641026 L30.9981538,6.04594872 L30.8330256,5.91753846 L30.6655385,5.79087179 L30.4968205,5.66605128 L30.3267692,5.54369231 L30.1541538,5.42235897 L29.9822564,5.30451282 L29.8069744,5.18789744 L29.6314872,5.07364103 L29.4529231,4.96092308 L29.2729231,4.84964103 L29.0949744,4.74297436 L28.9113846,4.63620513 L28.7287179,4.53220513 L28.5443077,4.43087179 L28.3578462,4.33076923 L28.1704615,4.2334359 L27.9821538,4.13815385 L27.7935385,4.04594872 L27.601641,3.95497436 L27.4087179,3.86625641 L27.2158974,3.78030769 L27.0201026,3.69620513 L26.8228718,3.61384615 L26.6282051,3.53548718 L26.4302564,3.45907692 L26.2293333,3.384 L26.0284103,3.31169231 L25.8285128,3.24266667 L25.625641,3.17558974 L25.4190769,3.10984615 L25.2155897,3.04758974 L25.0107692,2.98830769 L24.8008205,2.93005128 L24.5935385,2.87497436 L24.3853333,2.82297436 L24.1740513,2.77261538 L23.9633846,2.72523077 L23.7514872,2.68041026 L23.5386667,2.63825641 L23.3246154,2.5985641 L23.1074872,2.56112821 L23.0018462,2.54410256 L22.893641,2.52707692 L22.7848205,2.51087179 L22.6763077,2.49517949 L22.5715897,2.48082051 L22.462359,2.46687179 L22.3485128,2.45282051 L22.2389744,2.43969231 L22.1329231,2.42789744 L22.0228718,2.41651282 L21.9123077,2.40553846 L21.801641,2.39548718 L21.6904615,2.38584615 L21.5791795,2.37702564 L21.4677949,2.36871795 L21.3598974,2.36153846 L21.2482051,2.35487179 L21.1358974,2.34871795 L21.0235897,2.34348718 L20.9147692,2.33876923 L20.8018462,2.33528205 L20.6847179,2.33169231 L20.5754872,2.32912821 L20.4658462,2.32738462 L20.3521026,2.32646154 L20.2380513,2.32605128 L20.124,2.32646154 Z" id="Fill-3" fill="#FFFFFF"></path>
        <path d="M30.8984615,13.0838974 C30.1005128,13.4409231 29.2605128,13.6824615 28.3574359,13.7874872 C29.2814359,13.2414359 29.9744615,12.3699487 30.3,11.3409231 C29.46,11.8449231 28.5044103,12.2124103 27.5174359,12.4118974 C26.6878974,11.5718974 25.5433846,11.0259487 24.2729231,11.0259487 C21.8369231,11.0259487 19.8734359,12.9894359 19.8734359,15.4254359 C19.8734359,15.772 19.894359,16.1289231 19.9678974,16.444 C16.3138462,16.2445128 13.0797949,14.5854359 10.8853333,11.9184615 C10.5178462,12.5694359 10.2867692,13.2414359 10.2867692,14.0604103 C10.2867692,15.5725128 11.0637949,16.9165128 12.2608205,17.7144615 C11.5363077,17.6934359 10.8643077,17.4939487 10.2658462,17.1685128 L10.2658462,17.2210256 C10.2658462,19.3629744 11.7883077,21.148 13.8043077,21.5469744 C13.426359,21.652 13.0272821,21.7045128 12.6283077,21.7045128 C12.3552821,21.7045128 12.082359,21.6730256 11.8093333,21.6205128 C12.3552821,23.3634872 14.0037949,24.6655385 15.9148718,24.6865641 C14.4237949,25.8835897 12.502359,26.7761026 10.4443077,26.7761026 C10.0872821,26.7761026 9.74082051,26.7550769 9.39425641,26.7025641 C11.3368205,27.9521026 13.678359,28.4980513 16.1668718,28.4980513 C24.2729231,28.4980513 28.704,21.7780513 28.704,15.9504615 L28.704,15.3729231 C29.5544615,14.7534359 30.3,13.9869744 30.8984615,13.0838974 L30.8984615,13.0838974 Z" id="Fill-4" fill="#FFFFFF"></path>
    </g>
</svg>